<mxfile host="app.diagrams.net" agent="Mozilla/5.0 (Windows NT 10.0; Win64; x64) AppleWebKit/537.36 (KHTML, like Gecko) Chrome/131.0.0.0 Safari/537.36 Edg/131.0.0.0" version="26.0.7">
  <diagram id="prtHgNgQTEPvFCAcTncT" name="Page-1">
    <mxGraphModel dx="1106" dy="603" grid="1" gridSize="10" guides="1" tooltips="1" connect="1" arrows="1" fold="1" page="1" pageScale="1" pageWidth="827" pageHeight="1169" math="0" shadow="0">
      <root>
        <mxCell id="0" />
        <mxCell id="1" parent="0" />
        <mxCell id="MhkslmlR37bSSn2oEQ0e-16" style="edgeStyle=orthogonalEdgeStyle;rounded=0;orthogonalLoop=1;jettySize=auto;html=1;exitX=1;exitY=0.5;exitDx=0;exitDy=0;entryX=0;entryY=0.5;entryDx=0;entryDy=0;" edge="1" parent="1" source="MhkslmlR37bSSn2oEQ0e-2" target="MhkslmlR37bSSn2oEQ0e-3">
          <mxGeometry relative="1" as="geometry" />
        </mxCell>
        <mxCell id="MhkslmlR37bSSn2oEQ0e-2" value="" style="rounded=1;whiteSpace=wrap;html=1;fillColor=#dae8fc;strokeColor=#6c8ebf;strokeWidth=2;" vertex="1" parent="1">
          <mxGeometry x="90" y="450" width="120" height="340" as="geometry" />
        </mxCell>
        <mxCell id="MhkslmlR37bSSn2oEQ0e-17" style="edgeStyle=orthogonalEdgeStyle;rounded=0;orthogonalLoop=1;jettySize=auto;html=1;exitX=1;exitY=0.5;exitDx=0;exitDy=0;entryX=0;entryY=0.5;entryDx=0;entryDy=0;" edge="1" parent="1" source="MhkslmlR37bSSn2oEQ0e-3" target="MhkslmlR37bSSn2oEQ0e-4">
          <mxGeometry relative="1" as="geometry" />
        </mxCell>
        <mxCell id="MhkslmlR37bSSn2oEQ0e-3" value="" style="rounded=1;whiteSpace=wrap;html=1;fillColor=#dae8fc;strokeColor=#6c8ebf;strokeWidth=2;" vertex="1" parent="1">
          <mxGeometry x="340" y="450" width="270" height="340" as="geometry" />
        </mxCell>
        <mxCell id="MhkslmlR37bSSn2oEQ0e-4" value="" style="rounded=1;whiteSpace=wrap;html=1;fillColor=#dae8fc;strokeColor=#6c8ebf;strokeWidth=2;" vertex="1" parent="1">
          <mxGeometry x="730" y="450" width="130" height="340" as="geometry" />
        </mxCell>
        <mxCell id="MhkslmlR37bSSn2oEQ0e-5" value="&lt;font style=&quot;font-size: 18px;&quot;&gt;&lt;b&gt;Backend&lt;/b&gt;&lt;/font&gt;" style="text;html=1;align=center;verticalAlign=middle;whiteSpace=wrap;rounded=0;" vertex="1" parent="1">
          <mxGeometry x="445" y="760" width="60" height="30" as="geometry" />
        </mxCell>
        <mxCell id="MhkslmlR37bSSn2oEQ0e-6" value="Python Service" style="rounded=0;whiteSpace=wrap;html=1;fontSize=14;" vertex="1" parent="1">
          <mxGeometry x="370" y="490" width="200" height="60" as="geometry" />
        </mxCell>
        <mxCell id="MhkslmlR37bSSn2oEQ0e-7" value="Redis" style="rounded=0;whiteSpace=wrap;html=1;fontSize=14;" vertex="1" parent="1">
          <mxGeometry x="370" y="560" width="200" height="60" as="geometry" />
        </mxCell>
        <mxCell id="MhkslmlR37bSSn2oEQ0e-8" value="LangChain" style="rounded=0;whiteSpace=wrap;html=1;fontSize=14;" vertex="1" parent="1">
          <mxGeometry x="370" y="630" width="200" height="60" as="geometry" />
        </mxCell>
        <mxCell id="MhkslmlR37bSSn2oEQ0e-9" value="Celery" style="rounded=0;whiteSpace=wrap;html=1;fontSize=14;" vertex="1" parent="1">
          <mxGeometry x="370" y="700" width="200" height="60" as="geometry" />
        </mxCell>
        <mxCell id="MhkslmlR37bSSn2oEQ0e-10" value="&lt;font style=&quot;font-size: 18px;&quot;&gt;&lt;b&gt;Frontend&lt;/b&gt;&lt;/font&gt;" style="text;html=1;align=center;verticalAlign=middle;whiteSpace=wrap;rounded=0;" vertex="1" parent="1">
          <mxGeometry x="120" y="750" width="60" height="30" as="geometry" />
        </mxCell>
        <mxCell id="MhkslmlR37bSSn2oEQ0e-11" value="&lt;font style=&quot;&quot;&gt;Angular&lt;/font&gt;" style="rounded=0;whiteSpace=wrap;html=1;fontSize=14;" vertex="1" parent="1">
          <mxGeometry x="100" y="550" width="100" height="60" as="geometry" />
        </mxCell>
        <mxCell id="MhkslmlR37bSSn2oEQ0e-14" value="&lt;font style=&quot;font-size: 18px;&quot;&gt;&lt;b&gt;Database&lt;/b&gt;&lt;/font&gt;" style="text;html=1;align=center;verticalAlign=middle;whiteSpace=wrap;rounded=0;" vertex="1" parent="1">
          <mxGeometry x="765" y="760" width="60" height="30" as="geometry" />
        </mxCell>
        <mxCell id="MhkslmlR37bSSn2oEQ0e-15" value="&lt;font style=&quot;&quot;&gt;Pinecone&lt;/font&gt;" style="rounded=0;whiteSpace=wrap;html=1;fontSize=14;" vertex="1" parent="1">
          <mxGeometry x="745" y="530" width="100" height="70" as="geometry" />
        </mxCell>
      </root>
    </mxGraphModel>
  </diagram>
</mxfile>
